<svg aria-hidden="true" style="position:absolute;width:0;height:0;overflow:hidden" xmlns="http://www.w3.org/2000/svg"><defs><symbol id="icon-arrow" viewBox="0 0 32 32"><path d="M32 4.741 27.259 0v23.703L3.556 0-.001 3.557 23.702 27.26H-.001l4.741 4.741h27.259V4.742z"/></symbol><symbol id="icon-facebook" viewBox="0 0 32 32"><path fill="#ae1332" style="fill:var(--color1, #ae1332)" opacity=".8" d="M19.52 4.64h.96v3.6h-1.2c-.48 0-.96 0-1.2.24s-.24.48-.24 1.04v1.28h2.64v3.04h-2.64v13.2h-4.08V13.76H11.6v-3.04h2.16V9.68c0-1.76.24-3.04.72-3.6.72-1.04 2.16-1.52 4.32-1.52.24.08.48.08.72.08z"/></symbol><symbol id="icon-instagram" viewBox="0 0 32 32"><path fill="#ae1332" style="fill:var(--color1, #ae1332)" opacity=".8" d="M28.718 10.757a9.248 9.248 0 0 0-.617-3.208l.021.063a6.588 6.588 0 0 0-3.7-3.722l-.044-.015a9.192 9.192 0 0 0-3.097-.596h-.01c-1.367-.061-1.801-.078-5.271-.078-3.472 0-3.917 0-5.274.078a9.384 9.384 0 0 0-3.106.597 6.584 6.584 0 0 0-3.73 3.693l-.015.044a9.103 9.103 0 0 0-.596 3.091v.009c-.061 1.367-.08 1.8-.08 5.265 0 3.466 0 3.909.08 5.265a9.377 9.377 0 0 0 .597 3.104 6.59 6.59 0 0 0 3.7 3.721l.044.015c.917.37 1.979.601 3.091.638h.016c1.369.061 1.802.08 5.274.08 3.471 0 3.917 0 5.274-.08a9.383 9.383 0 0 0 3.172-.616l-.064.022a6.594 6.594 0 0 0 3.727-3.693l.016-.044a9.325 9.325 0 0 0 .595-3.104c.062-1.366.08-1.799.08-5.266-.003-3.465-.003-3.905-.082-5.263zM15.989 22.531h-.007a6.565 6.565 0 0 1-6.565-6.561 6.566 6.566 0 0 1 6.566-6.561h.006c3.629 0 6.571 2.937 6.571 6.561a6.567 6.567 0 0 1-6.567 6.56h-.005zm6.834-11.835a1.53 1.53 0 1 1 0-3.06l.042-.001a1.53 1.53 0 1 1 0 3.06l-.044-.001h.002z"/><path fill="#ae1332" style="fill:var(--color1, #ae1332)" opacity=".8" d="M15.992 19.976a4.004 4.004 0 0 0 0-8.008 4.004 4.004 0 0 0 0 8.008z"/></symbol><symbol id="icon-logo" viewBox="0 0 32 32"><path fill="#ae1332" style="fill:var(--color1, #ae1332)" d="M29.082.314h-4.009c-1.237 0-2.24.983-2.24 2.195v3.929c0 1.212 1.003 2.195 2.24 2.195h4.009c1.237 0 2.24-.983 2.24-2.195V2.509c0-1.212-1.003-2.195-2.24-2.195zM6.73 23.04H2.412C1.08 23.04 0 24.023 0 25.235v3.929c0 1.213 1.08 2.195 2.412 2.195H6.73c1.332 0 2.412-.983 2.412-2.195v-3.929c0-1.212-1.08-2.195-2.412-2.195zM6.25 11.582H2.241c-1.237 0-2.24.983-2.24 2.195v3.929c0 1.212 1.003 2.195 2.24 2.195H6.25c1.237 0 2.24-.983 2.24-2.195v-3.929c0-1.212-1.003-2.195-2.24-2.195zM17.766 22.978h-4.009c-1.237 0-2.24.983-2.24 2.195v3.929c0 1.212 1.003 2.195 2.241 2.195h4.009c1.237 0 2.24-.983 2.24-2.195v-3.929c0-1.213-1.003-2.195-2.24-2.195zM6.25.086H2.241c-1.237 0-2.24.983-2.24 2.195V6.21c0 1.212 1.003 2.195 2.24 2.195H6.25c1.237 0 2.24-.983 2.24-2.195V2.281C8.49 1.069 7.487.086 6.25.086zM18.076 11.697h-4.009c-1.237 0-2.24.983-2.24 2.195v3.929c0 1.212 1.003 2.195 2.24 2.195h4.009c1.237 0 2.24-.983 2.24-2.195v-3.929c0-1.212-1.003-2.195-2.24-2.195zM29.333 22.978h-4.01c-1.237 0-2.24.983-2.24 2.195v3.929c0 1.212 1.003 2.195 2.24 2.195h4.009c1.237 0 2.24-.983 2.24-2.195v-3.929c0-1.213-1.003-2.195-2.24-2.195zM17.591.224h-4.009c-1.237 0-2.24.983-2.24 2.195v3.929c0 1.212 1.003 2.195 2.24 2.195h4.009c1.237 0 2.24-.984 2.24-2.196V2.418c0-1.212-1.003-2.195-2.24-2.195zM29.044 11.926h-4.01c-1.237 0-2.24.983-2.24 2.195v3.929c0 1.212 1.003 2.195 2.24 2.195h4.009c1.237 0 2.24-.983 2.24-2.195v-3.929c0-1.212-1.003-2.195-2.24-2.195z"/></symbol><symbol id="icon-uil_cart" viewBox="0 0 32 32"><path fill="#ae1332" style="fill:var(--color1, #ae1332)" d="M25.333 9.334h-4V8a5.334 5.334 0 0 0-10.666-.004v1.338h-4c-.736 0-1.333.596-1.334 1.332v14.668a4 4 0 0 0 4 4h13.334a4 4 0 0 0 4-4V10.667a1.334 1.334 0 0 0-1.332-1.333zM13.333 8a2.667 2.667 0 1 1 5.334 0v1.334h-5.333V8zM24 25.334c0 .736-.597 1.333-1.333 1.333H9.334A1.334 1.334 0 0 1 8 25.335V12.001h2.666v1.334a1.333 1.333 0 0 0 2.666 0v-1.334h5.334v1.334a1.334 1.334 0 1 0 2.668 0v-1.334H24v13.334z"/></symbol><symbol id="icon-youtube" viewBox="0 0 32 32"><path fill="#ae1332" style="fill:var(--color1, #ae1332)" opacity=".8" d="M24.24 6c-1.36-.08-4.16-.16-8.4-.16h-.56c-4.08 0-6.8.08-8.16.24-1.84.16-3.12.64-3.84 1.28-.64.56-1.12 1.6-1.28 2.96-.08.88-.16 2.72-.16 5.52v.4c0 2.64.08 4.48.24 5.36.24 1.28.64 2.24 1.44 2.8.8.64 2.16 1.04 4.08 1.2 1.36.08 4.16.16 8.4.16h.56c4.08 0 6.8-.08 8.16-.24 1.84-.16 3.12-.64 3.84-1.28.64-.56 1.12-1.6 1.28-2.96.08-.88.16-2.72.16-5.52v-.4c0-2.64-.08-4.48-.24-5.36-.24-1.28-.64-2.24-1.44-2.8-.8-.64-2.16-1.04-4.08-1.2zm-3.12 9.84-8.8 5.28V10.56l8.8 5.28z"/></symbol></defs></svg>